<svg t="1690259273435" class="icon" viewBox="0 0 1024 1024" version="1.1" xmlns="http://www.w3.org/2000/svg" p-id="2464" width="200" height="200"><path d="M275.316 764.228c60.354 67.936 148.354 110.738 246.366 110.738 97.97 0 186.01-42.804 246.324-110.738H275.316zM521.682 216.208c-99.188 0-188.16 43.858-248.554 113.212h497.068c-60.396-69.356-149.328-113.212-248.514-113.212z" fill="#F58E70" p-id="2465"></path><path d="M261.216 757.892l9.366 10.542c63.722 71.73 155.244 112.868 251.1 112.868 95.866 0 187.378-41.138 251.062-112.868l9.358-10.542H261.216z m260.466 110.74c-87.436 0-171.124-35.57-231.834-98.068H753.48c-60.674 62.496-144.35 98.068-231.798 98.068zM774.972 325.26c-63.858-73.332-156.182-115.388-253.29-115.388-97.14 0-189.478 42.056-253.33 115.388l-9.14 10.494h524.898l-9.138-10.494z m-487.516-2.176c60.916-64.07 145.486-100.542 234.226-100.542 88.71 0 173.264 36.47 234.186 100.542H287.456z" fill="#4B555F" p-id="2466"></path><path d="M223.742 323.094C100.37 323.094 0 423.464 0 546.836s100.37 223.742 223.742 223.742h31.934a239.292 239.292 0 0 0 211.036-126.136l101.736-189.212a226.634 226.634 0 0 1 199.878-119.466v-12.67H223.742z m333.546 126.136l-101.736 189.212a226.632 226.632 0 0 1-199.874 119.466h-31.934c-116.386 0-211.072-94.688-211.072-211.072S107.36 335.764 223.744 335.764h467.566c-56.546 19.162-104.802 59.126-134.022 113.466z" fill="#4B555F" p-id="2467"></path><path d="M227.24 349.696c-108.054 0-198.654 85.482-200.604 193.518-1.992 110.354 87.2 200.764 197.108 200.764h31.932a212.722 212.722 0 0 0 187.608-112.132l101.734-189.214c20.682-38.466 50.374-70.122 85.684-92.936H227.24z" fill="#71CBDF" p-id="2468"></path><path d="M800.258 323.094h-31.93a239.298 239.298 0 0 0-211.04 126.136l-101.736 189.212a226.632 226.632 0 0 1-199.874 119.466v12.67h544.58c123.372 0 223.742-100.37 223.742-223.742s-100.37-223.742-223.742-223.742z m0 434.814H332.692c56.544-19.162 104.8-59.126 134.02-113.466l101.736-189.212a226.634 226.634 0 0 1 199.878-119.466h31.93c116.386 0 211.072 94.688 211.072 211.072s-94.686 211.072-211.07 211.072z" fill="#4B555F" p-id="2469"></path><path d="M997.364 543.214c-1.95-108.036-92.55-193.518-200.602-193.518h-28.44c-78.406 0-150.472 43.074-187.602 112.13l-101.738 189.214c-20.682 38.466-50.378 70.124-85.684 92.938h406.958c109.908 0 199.1-90.41 197.108-200.764zM274.626 763.416c-6.282 0.566-12.606 0.81-18.97 0.81h19.66c-0.244-0.282-0.488-0.526-0.69-0.81z" fill="#FFD351" p-id="2470"></path><path d="M677.694 445.932v207.854h12.67v-195.184h114.724v-12.67z" fill="#4B555F" p-id="2471"></path><path d="M684.028 535.572h121.058v12.67h-121.058zM833.208 487.534h12.67v166.25h-12.67zM367.514 487.534h12.67v166.25h-12.67zM367.514 447.004h12.67v19.756h-12.67zM833.208 447.004h12.67v19.756h-12.67zM339.484 186.764l5.808 11.264a371.23 371.23 0 0 1 11.172-5.524l-5.428-11.45c-3.884 1.842-7.74 3.746-11.552 5.71z m23.286-11.042l5.056 11.614a388.358 388.358 0 0 1 11.516-4.79l-4.678-11.774c-4 1.586-7.964 3.236-11.894 4.95z m23.946-9.514l4.29 11.924a386.768 386.768 0 0 1 11.808-4.034l-3.902-12.056a395.846 395.846 0 0 0-12.196 4.166z m24.52-7.938l3.506 12.176a382.578 382.578 0 0 1 12.048-3.258l-3.11-12.282a391.424 391.424 0 0 0-12.444 3.364z m50.342-11.024l1.906 12.526c4.1-0.624 8.228-1.18 12.374-1.672l-1.494-12.584c-4.286 0.508-8.546 1.086-12.786 1.73z m-25.356 4.698l2.714 12.378a375.9 375.9 0 0 1 12.232-2.47l-2.302-12.46c-4.24 0.782-8.45 1.634-12.644 2.552z m-199.868 110.986l9.058 8.86a389.592 389.592 0 0 1 8.86-8.768l-8.768-9.148a394.594 394.594 0 0 0-9.15 9.056zM487.19 144.2l1.088 12.624c4.128-0.356 8.274-0.648 12.44-0.876l-0.692-12.65c-4.298 0.234-8.576 0.536-12.836 0.902z m-264.096 132.978l-4.104 4.168 9.024 8.888 4.33-4.408c1.484-1.674 2.982-3.336 4.496-4.984l-9.33-8.57c-1.562 1.7-3.108 3.416-4.416 4.906z m93.892-77.902l6.508 10.872a402.706 402.706 0 0 1 10.802-6.238l-6.162-11.07a403.994 403.994 0 0 0-11.148 6.436z m-62.048 45.834l8.464 9.424a397.708 397.708 0 0 1 9.408-8.188l-8.166-9.688a418.66 418.66 0 0 0-9.706 8.452z m19.682-16.592l7.844 9.948a404.012 404.012 0 0 1 9.914-7.572l-7.532-10.188a413.08 413.08 0 0 0-10.226 7.812z m20.714-15.296l7.192 10.426a395.956 395.956 0 0 1 10.376-6.916l-6.862-10.654a403.04 403.04 0 0 0-10.706 7.144z m316.668-47.344c4.042 0.96 8.064 1.988 12.056 3.076l3.332-12.224a387.54 387.54 0 0 0-12.46-3.18l-2.928 12.328z m135.11 61.646a379.586 379.586 0 0 1 10.014 7.416l7.704-10.06a396.86 396.86 0 0 0-10.344-7.66l-7.374 10.304z m19.784 15.148a397.22 397.22 0 0 1 9.52 8.044l8.332-9.544a398.57 398.57 0 0 0-9.832-8.308l-8.02 9.808z m-40.494-28.998a374.474 374.474 0 0 1 10.464 6.754l7.044-10.534a387.97 387.97 0 0 0-10.818-6.98l-6.69 10.76z m-21.562-12.492c3.662 1.968 7.288 3.99 10.88 6.068l6.352-10.962a402.232 402.232 0 0 0-11.234-6.268l-5.998 11.162z m107.732 66.74l-9.206 8.706a380.704 380.704 0 0 1 8.414 9.194l9.486-8.402a390.162 390.162 0 0 0-8.694-9.498z m-18.274-18.134l-8.628 9.28a381.384 381.384 0 0 1 8.986 8.634l8.926-8.99c-3.048-3.026-6.142-6-9.284-8.924z m-134.742-69.276a368.86 368.86 0 0 1 11.56 4.612l4.892-11.688a396.128 396.128 0 0 0-11.948-4.768l-4.504 11.844z m-96.602-23.008c4.15 0.436 8.27 0.936 12.374 1.5l1.724-12.55a387.482 387.482 0 0 0-12.778-1.548l-1.32 12.598z m119.578 32.61c3.782 1.724 7.532 3.51 11.248 5.352l5.626-11.35a398.366 398.366 0 0 0-11.618-5.528l-5.256 11.526z m-94.902-29.212c4.096 0.696 8.17 1.46 12.224 2.288l2.532-12.414a386.584 386.584 0 0 0-12.636-2.366l-2.12 12.492z m-49.538-5.21c4.166 0.172 8.314 0.406 12.448 0.708l0.916-12.638a406.526 406.526 0 0 0-12.844-0.728l-0.52 12.658z m-25.204-12.888l0.288 12.666c2.954-0.066 5.918-0.102 8.888-0.102l3.58 0.016 0.108-12.67-3.688-0.016c-3.068 0-6.124 0.036-9.176 0.106z m123.126 29.616a376.5 376.5 0 0 1 11.832 3.854l4.124-11.98a391.254 391.254 0 0 0-12.228-3.982l-3.728 12.108zM320.492 447.402l-43.322 184.452-35.438-97.374-11.89-0.034-36.124 97.516-44.288-186.422-12.324 2.928 49.122 206.782 12.1 0.736 37.4-100.958 36.802 101.12 12.116-0.72 48.178-205.13z" fill="#4B555F" p-id="2472"></path></svg>